<svg id="Layer_1" data-name="Layer 1" xmlns="http://www.w3.org/2000/svg" viewBox="0 0 38.27 27.06"><title>aspas</title><path d="M21.52,28.11a8,8,0,0,1-2.22,5.78,7.7,7.7,0,0,1-5.79,2.31A9,9,0,0,1,6.35,33a11.53,11.53,0,0,1-2.81-7.79,15.11,15.11,0,0,1,4.9-11.3A16.41,16.41,0,0,1,20.27,9.15l.18,1.33a11.87,11.87,0,0,0-7.83,3,8.86,8.86,0,0,0-3.56,6.88,3.09,3.09,0,0,0,.22,1.34.7.7,0,0,0,.67.44,5.3,5.3,0,0,0,1.91-.58A5.63,5.63,0,0,1,14,21a7.62,7.62,0,0,1,5.21,2A6.52,6.52,0,0,1,21.52,28.11Zm20.29,0a8,8,0,0,1-2.22,5.78A7.68,7.68,0,0,1,33.8,36.2,9,9,0,0,1,26.64,33a11.52,11.52,0,0,1-2.8-7.79,15.14,15.14,0,0,1,4.89-11.3A16.42,16.42,0,0,1,40.57,9.15l.17,1.33a11.89,11.89,0,0,0-7.83,3,8.86,8.86,0,0,0-3.56,6.88,3.07,3.07,0,0,0,.23,1.34.68.68,0,0,0,.66.44,5.34,5.34,0,0,0,1.92-.58A5.59,5.59,0,0,1,34.34,21a7.61,7.61,0,0,1,5.2,2A6.49,6.49,0,0,1,41.81,28.11Z" transform="translate(-3.54 -9.15)" fill="#377d67"/></svg>