<svg id="Layer_1" data-name="Layer 1" xmlns="http://www.w3.org/2000/svg" viewBox="0 0 595.28 530.88"><defs><style>.cls-1{fill:#479681;}.cls-2{fill:#fff;}.cls-3{fill:none;}</style></defs><title>icon</title><circle class="cls-1" cx="297.64" cy="265.44" r="259.04"/><path class="cls-2" d="M157.9,363.57V296H106.09v67.56l-18.84,4.7V373h92.63v-4.71Zm89.49-194.22q-23.55-16.17-76.93-16.17H87.25v4.71l18.84,4.71v80.49H157.9V161h12.56q22,0,34.54,13.81t12.56,39.57q0,16.93-5.42,28.68h50.68q8.13-11.43,8.12-28.68Q270.94,185.52,247.39,169.35Zm28.26,194.22-28.26-62.81A44.21,44.21,0,0,0,245,296H187.36l22.35,50.28Q221.64,373,247.39,373h44v-4.71Z"/><polygon class="cls-3" points="482.9 243.09 482.9 287.38 183.52 287.38 178.31 275.64 157.9 275.64 157.9 287.38 106.09 287.38 106.09 243.09 482.9 243.09"/><path class="cls-2" d="M327.47,358.85V296h-9.42v62.84l-25.12,9.42V373h59.66v-4.71ZM373,175.16a78.93,78.93,0,0,0-17.9-16q-9.42-6-26.06-6h-33v4.71l22,6.28v78.92h9.42V206.57l31.17,36.52H431ZM403.79,296l69.69,81.69h9.42V296Zm44.57-142.83v4.71l25.12,9.43v75.77h9.42V167.32L508,157.89v-4.71Z"/></svg>