<svg id="Layer_1" data-name="Layer 1" xmlns="http://www.w3.org/2000/svg" viewBox="0 0 1621.08 530.88"><defs><style>.cls-1,.cls-2{fill:#479681;}.cls-2{font-size:128px;font-family:Elephant-Regular, Elephant;}</style></defs><title>logo mobile</title><path class="cls-1" d="M1048.38,178.58a7,7,0,0,0-1.07-.66l-.26-.13a7,7,0,0,0-1.1-.43l0,0a8.67,8.67,0,0,0-1.36-.31h0c-9.16-1.32-24.42,9.57-44.89,25.66a13.18,13.18,0,0,0,0-3.74c4.41-16,8.79-20.64,11.75-21.63a3.28,3.28,0,0,1,3,.31.48.48,0,0,0,.67-.07.47.47,0,0,0-.07-.67,4.22,4.22,0,0,0-3.92-.49c-3.11,1-7.65,5.61-12.11,21.24a.56.56,0,0,0-.39-.16.65.65,0,0,0-.43-.06c3.66-15.83,1.9-22-.33-24.43a4.23,4.23,0,0,0-3.67-1.48.48.48,0,0,0-.38.56.48.48,0,0,0,.55.38,3.32,3.32,0,0,1,2.83,1.21c2.1,2.29,3.7,8.47-.18,24.61a12.62,12.62,0,0,0-1.85,3.26c-10.13-24-18.22-40.9-26.88-44.17h0a8.17,8.17,0,0,0-1.34-.39h0a7.77,7.77,0,0,0-1.18-.15l-.28,0a8.86,8.86,0,0,0-1.26.06,3.9,3.9,0,0,0-1,.24,8.32,8.32,0,0,0-4,4.09c-.22.41-.44.84-.64,1.3-2.69,5.94-3.94,15.58-3.78,24.07a57.73,57.73,0,0,0,.8,9,26.75,26.75,0,0,0,1.06,4.24,8.31,8.31,0,0,0,2.11,3.55,7.5,7.5,0,0,0,.94.67l.24.15c.34.2.7.4,1.08.58l.08,0c.37.17.77.33,1.17.48l.28.11c.44.15.89.3,1.36.43l.11,0c.45.13.92.25,1.4.36l.24.06,1.58.32h.08c.54.1,1.08.19,1.63.27l.14,0c8.33,1.21,17.9.78,18.26,2,.44,1.49-16.45.19-23.75,1.95h0c-.37.09-.71.19-1,.3l-.18,0a8.64,8.64,0,0,0-.85.37h0a3.38,3.38,0,0,0-.59.4l-.13.11a1.71,1.71,0,0,0-.37.49c-1.93,4.22,7.1,9.08,4.43,12.27a6,6,0,0,1-1.33,1.1c-1.88,1.2-4.76,2.11-7,3.19s-3.84,2.34-3.14,4.21c.8,2.15,2.68.74,5.13-1.33,1.22-1,2.59-2.23,4-3.23a11.33,11.33,0,0,1,4.5-2c5-.76,4.06,4.18,6.21,5.84a2.85,2.85,0,0,0,2.1.52h0a4.09,4.09,0,0,0,.87-.18l.2-.06a6.7,6.7,0,0,0,.9-.38.39.39,0,0,0,.11-.06,8.86,8.86,0,0,0,.88-.5l.19-.12c.33-.21.65-.44,1-.69l.16-.12c.31-.24.62-.48.93-.74l.14-.11c.34-.29.69-.59,1-.9l.15-.14c1.22-1.09,2.42-2.26,3.54-3.32l.48-.46.39-.36a13.58,13.58,0,0,1,3.49-2.63,74.84,74.84,0,0,0-1.12,11,.69.69,0,0,0,1.31.34,73.79,73.79,0,0,0,4.34-10.18,13.61,13.61,0,0,1,1.79,4c.05.15.11.31.16.48l.21.67c.47,1.47,1,3.06,1.48,4.59,0,.07.05.13.07.2.15.44.31.87.47,1.29a1.11,1.11,0,0,0,.07.16c.14.38.29.74.45,1.09,0,.07,0,.13.08.19.17.38.35.73.53,1.07a2.12,2.12,0,0,0,.11.21c.17.3.34.59.52.86l.07.11a6.76,6.76,0,0,0,.61.76,1,1,0,0,0,.14.15,3.62,3.62,0,0,0,.68.58c4.17,2.77,5.42-5.34,10.34-1.54a9.5,9.5,0,0,1,2.34,2.8,20.63,20.63,0,0,1,1.18,2.35c.47,1.07.87,2.15,1.26,3.16.11.28.21.55.32.82a11.84,11.84,0,0,0,1.54,3.1,2.44,2.44,0,0,0,1,.63,1.27,1.27,0,0,0,.56-.09,2.34,2.34,0,0,0,.61-.4,2.16,2.16,0,0,0,.81-1.95c-.12-1.37-1.26-3-2.57-4.63-.33-.43-.68-.86-1-1.29a26,26,0,0,1-2.51-3.51,5.64,5.64,0,0,1-.63-1.61,2.2,2.2,0,0,1,0-.72,3.25,3.25,0,0,1,1.88-2.15,17.77,17.77,0,0,1,1.69-.83c.61-.26,1.25-.52,1.87-.8q.46-.19.93-.42a9.2,9.2,0,0,0,2.36-1.51,3.29,3.29,0,0,0,1.1-2.17h0a1.44,1.44,0,0,0-.09-.6,1,1,0,0,0,0-.16,3.47,3.47,0,0,0-.32-.64h0a7.18,7.18,0,0,0-.58-.74l-.12-.13c-.23-.25-.48-.5-.76-.76h0c-5.54-5.07-20.95-12.1-19.84-13.19.84-.83,8,3.44,15.3,6.43h0l.07,0,.65.26,1.36.51.76.28,1.33.44.66.2c.64.19,1.27.36,1.89.5l.32.07c.52.11,1,.2,1.51.27l.57.06c.42,0,.82.07,1.22.08h.5a8.58,8.58,0,0,0,1.55-.15C1039.15,220.22,1056.88,184.85,1048.38,178.58Z"/><path class="cls-1" d="M594.6,236.61a12.87,12.87,0,0,1,4,2.67,29.58,29.58,0,0,1,2.33,2.52c1,1.17,1.87,2.37,2.72,3.5l.7.92a16,16,0,0,0,3.06,3.33,2.13,2.13,0,0,0,1.17.41,2.45,2.45,0,0,0,.27,0,1.51,1.51,0,0,0,.67-.31,3.3,3.3,0,0,0,.63-.72,2.86,2.86,0,0,0,.3-2.75c-.65-1.66-2.66-3.27-4.9-4.88l-1.75-1.24a33.7,33.7,0,0,1-4.43-3.49A7.5,7.5,0,0,1,598,234.8a2.89,2.89,0,0,1-.29-.89c-.17-1.17.51-2.28,1.57-3.38a23,23,0,0,1,1.82-1.65l2.06-1.68c.34-.29.68-.58,1-.87a12.27,12.27,0,0,0,2.42-2.76,4.27,4.27,0,0,0,.6-3.11h0a2.57,2.57,0,0,0-.33-.72l-.13-.18a4.44,4.44,0,0,0-.64-.68l0,0a9.24,9.24,0,0,0-1-.71l-.21-.12c-.38-.23-.78-.46-1.22-.68h0c-8.78-4.35-30.66-7.57-29.67-9.34.75-1.34,11.25,1.43,21.53,2.51h.1l.91.08,1.89.16,1,.06c.62,0,1.23.06,1.83.07l.9,0c.87,0,1.73,0,2.55-.06l.43,0c.69,0,1.35-.11,2-.21.25,0,.49-.08.73-.12a14.46,14.46,0,0,0,1.57-.35A6.48,6.48,0,0,0,610,210a12.81,12.81,0,0,0,1.89-.74c10.08-5.2,19.47-56,6.54-60.79a11,11,0,0,0-1.59-.44l-.37-.06a9.8,9.8,0,0,0-1.54-.15h-.07a12.46,12.46,0,0,0-1.82.12h0c-12,1.66-27.15,20.86-47,48.48a16.87,16.87,0,0,0-1.41-4.68c-.28-21.68,3.53-29.08,6.88-31.4a4.33,4.33,0,0,1,4-.72.62.62,0,0,0,.81-.33.61.61,0,0,0-.33-.81,5.5,5.5,0,0,0-5.09.81c-3.54,2.41-7.57,9.81-7.48,31a.83.83,0,0,0-.56-.06.8.8,0,0,0-.55.09c-1.16-21.19-5.62-28.33-9.29-30.53a5.49,5.49,0,0,0-5.13-.51.61.61,0,0,0-.28.82.62.62,0,0,0,.83.29,4.32,4.32,0,0,1,4,.49c3.48,2.11,7.72,9.27,8.71,30.93a17.09,17.09,0,0,0-1.13,4.76c-21.42-26.41-37.7-44.68-49.75-45.64h0a11.07,11.07,0,0,0-1.82,0h-.08a13,13,0,0,0-1.52.24l-.37.09a11.35,11.35,0,0,0-1.55.53,5.13,5.13,0,0,0-1.11.65c-1.74,1.28-2.88,3.59-3.54,6.58-.13.59-.24,1.22-.34,1.86-1.21,8.43.73,21,4,31.57a76.43,76.43,0,0,0,4.28,11,34.38,34.38,0,0,0,2.88,4.93,10.66,10.66,0,0,0,3.93,3.69,13.11,13.11,0,0,0,1.42.5l.35.1a15.58,15.58,0,0,0,1.57.33l.11,0c.53.08,1.09.13,1.65.17l.39,0q.9.06,1.86.06h.15c.61,0,1.24,0,1.88-.06h.33c.69-.05,1.39-.1,2.1-.17l.1,0c.71-.07,1.42-.16,2.14-.25l.18,0c10.89-1.5,22.74-5.51,23.63-4.12,1.09,1.71-20.56,6.21-29.07,11.07h0c-.43.25-.82.5-1.18.75l-.2.13a8.83,8.83,0,0,0-.94.77l0,0a4.24,4.24,0,0,0-.6.72,1.74,1.74,0,0,0-.11.18,2.33,2.33,0,0,0-.29.75c-.89,6,12.2,8.81,10,13.78a7.5,7.5,0,0,1-1.26,1.87c-1.92,2.18-5.21,4.37-7.63,6.54s-4,4.32-2.4,6.42c1.77,2.41,3.62-.05,5.94-3.53,1.17-1.74,2.45-3.74,3.9-5.51a14.73,14.73,0,0,1,4.91-4.19c6-2.77,6.61,3.76,9.91,5.07a3.76,3.76,0,0,0,2.82-.11h0a5.59,5.59,0,0,0,1-.54l.24-.15a8.68,8.68,0,0,0,1-.8l.12-.12a11.67,11.67,0,0,0,.91-.94c.07-.08.14-.15.2-.23.33-.38.66-.79,1-1.21l.16-.22c.3-.4.6-.82.89-1.26a2.14,2.14,0,0,0,.13-.19c.33-.49.66-1,1-1.5,0-.08.09-.15.14-.23,1.12-1.81,2.2-3.71,3.22-5.45l.45-.76c.11-.2.23-.4.35-.59a18,18,0,0,1,3.42-4.57,96.09,96.09,0,0,0,2.6,14.22.89.89,0,0,0,1.76-.05,95.09,95.09,0,0,0,1.75-14.34,17.94,17.94,0,0,1,3.7,4.36l.37.55.51.76c1.12,1.68,2.3,3.5,3.52,5.23.06.07.11.15.16.22.35.49.7,1,1.06,1.44l.14.19c.32.42.64.82,1,1.2l.17.21c.35.41.69.79,1,1.15.08.08.15.14.22.22.32.32.64.62,1,.89l.12.11a9.15,9.15,0,0,0,1,.74l.24.14a6.57,6.57,0,0,0,1.06.48C588.43,244.25,587.05,233.63,594.6,236.61Z"/><path class="cls-1" d="M856.39,160.82c.3-.69.67-1.67,1.08-2.92a23.67,23.67,0,0,0,2.45,7.79,11.05,11.05,0,0,0,2.94,3.31h0a10.37,10.37,0,0,0,1.21.78l.24.13a11.25,11.25,0,0,0,2.68,1l.29.06a10.88,10.88,0,0,0,1.41.2h0a10.9,10.9,0,0,0,1.4,0l.34,0a9.8,9.8,0,0,0,1.41-.21h0a10.69,10.69,0,0,0,1.36-.42l.35-.13a12.59,12.59,0,0,0,1.34-.64c.32-.19.62-.39.92-.6.13-.09.26-.2.39-.31a4.82,4.82,0,0,0,.44-.35c.17-.15.33-.31.49-.47l.26-.25c.18-.19.35-.39.52-.6a2.09,2.09,0,0,1,.14-.17c.18-.23.35-.47.52-.72l.06-.1c.17-.26.33-.54.48-.82l0,0a11.09,11.09,0,0,0,1.26-5.42l.09,0,1.1.21.43.07,1,.16.39,0c.45.07.9.12,1.34.16h0c.45.05.89.08,1.32.11l.37,0,.89,0H889c.38,0,.75,0,1.11-.07A18,18,0,0,0,901.57,155a18.52,18.52,0,0,0,1.28-1.53,17.67,17.67,0,0,0,1.41-2.15,18,18,0,0,0,1.82-4.92,17.42,17.42,0,0,0,.28-1.76,18.63,18.63,0,0,0,0-3.66,18.06,18.06,0,0,0-19.67-16.28l-1.15.15-.34.06-1,.17-.32.07c-.86.18-1.77.42-2.7.7l-.18.06c-.44.13-.88.28-1.32.43l-.13,0c-1.51.53-3.06,1.17-4.61,1.89h0c-5.74,2.71-11.31,6.66-14,11a8.27,8.27,0,0,0-.26-2.42c2-11,4.63-14.41,6.56-15.26a2.17,2.17,0,0,1,2.07,0,.32.32,0,0,0,.36-.54,2.85,2.85,0,0,0-2.67-.08c-2,.88-4.8,4.24-6.82,15A.42.42,0,0,0,860,136s-.27-.14-.69.24c-.79-10.48.85-14.25,2.44-15.54a2.27,2.27,0,0,1,2-.52.32.32,0,1,0,.21-.6,2.84,2.84,0,0,0-2.6.61c-1.76,1.39-3.59,5.48-2.64,16.83-.61,1.09-1.37,3.27-2.09,7.68-1.37,8.53-1.29,13.64-1.1,16A.46.46,0,0,0,856.39,160.82Z"/><path class="cls-1" d="M761.17,173.39c-7.23,5.19-11.7,6.21-17.6,6.34s-11.66,2-13.3,7a3.88,3.88,0,0,0-.19,1.25c0,.1,0,.21,0,.31a5.24,5.24,0,0,0,.18,1.12s0,.07,0,.1a6.64,6.64,0,0,0,.5,1.17c.06.1.11.2.17.29a8.77,8.77,0,0,0,.64,1l.06.1h0a18.41,18.41,0,0,0,3.09,3.09c-.55,0-.94.15-1.06.41s.05.64.41,1.07a17.68,17.68,0,0,0-4.36-.21h0l-.12,0a10.61,10.61,0,0,0-1.15.19l-.33.07a6.94,6.94,0,0,0-1.21.43l-.08,0a5,5,0,0,0-1,.62l-.24.21a4.47,4.47,0,0,0-.79,1c-2.61,4.6-.13,10.14,3.74,14.58s6.14,8.44,7.16,17.28,5.36,6.65,10,1.11l.47-.58h0c4.47-5.56,10.15-15.27,5.23-26.08l.4-.11a3.37,3.37,0,0,0,.32.19,2.93,2.93,0,0,0,2.32.13c5.72,3.54,7.14,6.22,7.27,7.87a3.38,3.38,0,0,1-1.39,3,.27.27,0,1,0,.35.42,3.92,3.92,0,0,0,1.58-3.43c-.19-2.48-2.75-5.31-7.37-8.19,0-.05.09-.08.12-.13a1.09,1.09,0,0,0,0-.18c5.25,1.48,9.06,1.47,11-.06a4,4,0,0,0,1.47-3.48.27.27,0,0,0-.29-.26.26.26,0,0,0-.25.29,3.42,3.42,0,0,1-1.26,3c-1.31,1-4.25,1.77-10.72-.09a2.87,2.87,0,0,0-1.65-1.62,2.47,2.47,0,0,0-.36-.11,3.24,3.24,0,0,0-.19-.37c11.32-3.64,14.67-14.37,15.78-21.42h0l.12-.74C769.69,172.89,768.4,168.21,761.17,173.39Z"/><text class="cls-2" transform="translate(118.4 388.77)">Recanto dos Nobres</text></svg>